<?xml version="1.0" encoding="utf-8"?>
<!-- Generator: Adobe Illustrator 24.2.1, SVG Export Plug-In . SVG Version: 6.00 Build 0)  -->
<svg version="1.1" id="Layer_1" xmlns="http://www.w3.org/2000/svg" xmlns:xlink="http://www.w3.org/1999/xlink" x="0px" y="0px"
	 viewBox="0 0 2610.3 1777.7" style="enable-background:new 0 0 2610.3 1777.7;" xml:space="preserve">
<style type="text/css">
	.st0{fill:#FFFFFF;}
	.st1{fill:#D1E5FF;}
	.st2{fill:#9BC1F9;}
	.st3{fill:#466EB6;}
	.st4{fill:#86B1F2;}
	.st5{fill:#F7CC7F;}
	.st6{fill:#F47458;}
	.st7{fill:#FAE0B2;}
	.st8{fill:#FE978E;}
	.st9{fill:#FF7446;}
	.st10{fill:#001653;}
	.st11{fill:#957447;}
	.st12{fill:#F25C12;}
	.st13{fill:#E6A500;}
	.st14{fill:#021F6E;}
	.st15{fill:#021753;}
	.st16{fill:#5D70A2;}
	.st17{fill:#FCC332;}
	.st18{opacity:0.6;fill:#B5450E;}
	.st19{fill:#00424C;}
	.st20{fill:#F29913;}
	.st21{fill:#50BFA5;}
	.st22{fill:#100062;}
	.st23{fill:#0C004A;}
	.st24{fill:#FCB500;}
	.st25{fill:#FC9700;}
	.st26{fill:#F7A491;}
	.st27{fill:#184655;}
	.st28{fill:#355389;}
	.st29{fill:#F8A492;}
	.st30{fill:#3C8F7C;}
	.st31{fill:#FE875E;}
	.st32{fill:#13375B;}
	.st33{fill:#96D9C9;}
</style>
<g>
	<g>
		
			<rect x="0" y="-110.1" transform="matrix(-1 -1.224647e-16 1.224647e-16 -1 2760.5605 1779.7872)" class="st0" width="2760.6" height="2000"/>
		<path class="st1" d="M535.3,262.9C4.7,777.5,315.4,1759.8,315.4,1759.8l2095,4.3c0,0,390.4-698.7-13-1266.4
			C2025-26.7,942.1-131.7,535.3,262.9z"/>
	</g>
	<g>
		
			<rect x="351.7" y="262.9" transform="matrix(-1 -1.224647e-16 1.224647e-16 -1 1348.6509 2009.9943)" class="st2" width="645.2" height="1484.3"/>
		<g>
			
				<rect x="743.8" y="175.2" transform="matrix(-1 -1.224647e-16 1.224647e-16 -1 1529.7545 1922.7599)" class="st3" width="42.2" height="1572.4"/>
			<g>
				<path class="st4" d="M743.8,175.2c0,4,0.3,1571.7,0.3,1571.7H353.6v-1485L743.8,175.2z"/>
				<path class="st2" d="M398.3,392.1l1.9,415.1c1.6-0.2,3.3-0.3,4.9-0.3c21.3,0,39.2,17.3,39.3,39.2l216.7-26.7
					c-0.1-20,14.8-36.8,34.6-39.3l-1.9-434.5c-2.8,0.6-5.6,0.9-8.3,0.9c-21.1,0-39.2-17.1-39.3-39.2l-216.7,46
					C429.6,372,416.6,388.2,398.3,392.1z M413.5,402.8c14.9-7.1,25.9-20.8,29.7-36.9l191-40.6c6.8,19.1,23.9,33.3,44.5,35.9
					l1.8,407.2c-16.3,6.4-28.5,20.4-32.9,37.3l-190.8,23.5c-6.1-18.6-22-32.9-41.6-36.6L413.5,402.8z"/>
				<path class="st2" d="M399,1148.5l0.9,494.7c0,0,0,0,0.1,0c21.7,0,39.3,17.6,39.4,39.3l56.6-0.1c0-21.7,17.6-39.3,39.3-39.4
					v-499.6c-1.2,0.1-2.3,0.1-3.4,0.1c-21.5,0-39.3-17.5-39.3-39.4l-57.5,5C435,1129.6,419.4,1146.7,399,1148.5z M414.2,1160.5
					c16.7-6.1,29.5-20.1,34.1-37.3l31.5-2.7c5.8,18.5,21.2,32.8,40.3,37V1630c-17.9,5.2-32,19.4-37.2,37.2l-30.6,0.1
					c-5.2-17.9-19.4-32-37.3-37.2L414.2,1160.5z"/>
				<path class="st2" d="M560.5,1134.5v508.3h0.1c21.7,0,39.4,17.6,39.4,39.4l46.3-0.1c0.2-21.6,17.7-39,39.3-39.1l3.9-512.6
					c-1.2,0.1-2.3,0.1-3.4,0.1c-21.6,0-39.5-17.6-39.3-39.7l-50.2,4.3C596.5,1115.7,580.9,1132.7,560.5,1134.5z M575.7,1146.6
					c16.9-6,29.7-19.9,34.2-37.3l24-2.1c2.6,8.4,7.1,16,13.4,22.4c7.5,7.5,16.8,12.6,26.8,14.9l-3.7,485.6
					c-17.8,5.2-31.9,19.2-37.2,37l-20.3,0c-5.2-17.9-19.4-32.1-37.3-37.2V1146.6z"/>
			</g>
		</g>
		<g>
			<ellipse class="st5" cx="654.7" cy="961.9" rx="15.9" ry="30.9"/>
			<path class="st6" d="M623.9,951v24.3h33.3c1-4,1.5-8.5,1.5-13.2c0-3.9-0.4-7.6-1.1-11.1H623.9z"/>
			<path class="st7" d="M600.9,961.9c0,25.7,10.7,46.5,24,46.5s24-20.8,24-46.5c0-25.7-10.7-46.5-24-46.5S600.9,936.2,600.9,961.9z"
				/>
			<ellipse class="st7" cx="618.4" cy="961.9" rx="24" ry="46.5"/>
		</g>
		<g>
			<path class="st8" d="M218.4,1777.7h2323.8c5.9,0,10.7-7,10.7-15.6c0-8.6-4.8-15.6-10.7-15.6H218.4c-5.9,0-10.7,7-10.7,15.6
				C207.7,1770.7,212.5,1777.7,218.4,1777.7z"/>
		</g>
		<g>
			<path class="st9" d="M2269,1673.5c0,0,0.2,1.5,0.2,4c0,7.5-1.5,24-13.2,36.2c-15.6,16.2-15.7,36.4,0.8,39.9
				c16.5,3.5,55.8-1.1,55.8-1.1s8.9-15.4,2.8-56.7c-6.1-41.3-9.6-86.5-9.6-86.5l-44.8-7L2269,1673.5z"/>
			<path class="st10" d="M2260.3,1691c0,0-16.6,22.6-20.5,32c-3.9,9.4-3.1,32.8,0,35.2c26.9,21.2,77.8,2.1,77.8,2.1
				s3.5-15.6,5.3-34.7c1.8-19.1,0.8-36.9-5.3-36.9s-7.1,10-20.9,7.2C2282.9,1693.2,2274.4,1688.2,2260.3,1691z"/>
			<path class="st0" d="M2321.8,1735.2c-10.4,4-24.4,8.8-37.5,10.6c-14,2-32.8-4.2-46.9-10.5c-0.7,10,0.3,21.2,2.4,22.8
				c26.9,21.2,77.8,2.1,77.8,2.1S2320,1749.7,2321.8,1735.2z"/>
			<path class="st11" d="M2321.8,1735.2c-38.6,11.6-45.7,13.6-84.4,0.2c6.5,3.5,13.2,6.3,20.3,8.6c14.9,4.6,23.7,4.2,33,2.1
				C2301.7,1743.6,2312.2,1739.9,2321.8,1735.2z"/>
			<path class="st12" d="M1820.8,971.6c11,4.1,25.7,10.3,25.7,10.3c1.9-4.6-34.5-12.3-39.6-23.4c-2.7-5.9,41.8,15.9,44.9,13.3
				c1.3-1.1-50.3-17.9-48-21.9c2-3.4,54.3,15,54.6,12.5c0.4-3.5-45.3-12.7-41.2-17.8c2.1-2.6,57.5,12.4,63.5,13.3
				c7.3,0-19.2-18-10.1-20.4c12.2-3.3,43,32,45.4,32.5c7,1.4,66.3,8.7,95.3-10.3c23.4-15.3,46.2-38.9,51.8-59.2
				c5.5-19.9,13-48.3,6.6-70.3c26.4-4,52-4.9,78.8-1.7c1.6,32.9-37.8,163.5-54.3,174.2c-36.3,23.6-101,17.8-146.6,14.1
				c-36.8-3-72.8-10.3-105.9-27.1c-7.4-3.8-17.3-8-23.1-14.5C1816.9,973.4,1818.7,970.8,1820.8,971.6z"/>
			<path class="st13" d="M2086,719.5c-19.7,20.3-39.5,141.9-32.2,170.9c12.6,23.5,69.7,27.6,88.2,38.8
				c42.6-17.5,13.4-96.1,13.4-96.1l15.5-153C2170.9,680.1,2123.4,680.8,2086,719.5z"/>
			<path class="st9" d="M2139.7,1646.3c5.8,18.3,0.1,38.4-14.8,50.5c-5.1,4.2-11.1,8.1-17.9,11c-26.1,11.4-59.9,8.8-64.6,32.3
				c-4.7,23.4,165.5-6.6,165.5-6.6s-11.8-57-12.6-66.5c-0.8-9.5,1-44.6,1-44.6l-65.7-4.7L2139.7,1646.3z"/>
			<path class="st10" d="M2201,1693.2c0,0,2.1,9.1,6.8,24.4c4.8,15.3,1.8,29.8,1.8,29.8s-159.4,7.6-165.9,2.5
				c-6.5-5-3.1-23.4-1.5-25.1c1.6-1.6,21.9-7.1,32.2-13.5c10.4-6.4,45.8-30.6,57.8-29.6c12,1,17.5,9.8,40.2,10.8
				C2195.2,1693.5,2195.3,1688.8,2201,1693.2z"/>
			<path class="st0" d="M2043.7,1749.9c6.5,5,165.9-2.5,165.9-2.5s2-9.5,0.2-21.2c-83.2,15.4-167.5-1.3-167.5-1.3
				C2040.6,1726.5,2037.3,1744.8,2043.7,1749.9z"/>
			<path class="st11" d="M2209.8,1726.1c-56.8,11.4-119.8,8.9-167.5-1.3c86.8,13.1,156.8,3,151.9,3.4
				C2194.3,1728.2,2210.8,1726,2209.8,1726.1z"/>
			<path class="st14" d="M2332.9,1093.9c27.4,100-6.6,548.7-6.6,548.7l-81.9-5.6c0,0-18.6-446.3-32.1-459.8c-4-4-8.2-2.7-11.5-0.5
				c-3.3,2.3-5.6,5.7-6.8,9.5c-8.4,27.5-56.6,187.9-46.9,223c10.6,38.4,58.1,244.4,58.1,244.4l-68.7,2.7c0,0-94.2-157.3-94.2-267.1
				c0-109.8,15.3-255.4,59.8-314.6c20.3-27,120-47.8,120-47.8S2324.3,1062.6,2332.9,1093.9z"/>
			<g>
				<path class="st15" d="M2184.9,1653.3c0,0-47.4-219.6-58.1-260.6c-7.7-29.8,21.2-143.9,37.5-204.2c4.9-18.1,26.7-25.4,41.5-13.9
					l0,0c0,0-69.4,196.1-58.7,234.5c10.6,38.4,58.1,244.4,58.1,244.4l-68.7,2.7c0,0-0.2-0.3-0.5-0.8L2184.9,1653.3z"/>
				<path class="st15" d="M2315.9,1073.1c8.8,6.9,15.1,13.9,17,20.8c27.4,100-6.6,548.7-6.6,548.7l-20.3-1.4
					C2307.1,1625,2336.6,1202.6,2315.9,1073.1z"/>
			</g>
			<path class="st15" d="M2086.4,1101.3c4.8-10.2,10-19.2,15.7-26.8c2.4-3.1,5.8-6.2,10-9.1c11.4,5.8,27.1,12.2,48.9,18.9
				c65.6,20.2,136.4,9.4,165.8-0.8c3,3.5,5.1,7.1,6,10.5c2.4,8.7,4.3,20,5.8,33.4c-14.7,10.9-100,37.3-177.7,12.6
				C2111.7,1124.2,2093.4,1114.7,2086.4,1101.3z"/>
			<path class="st16" d="M2326.3,1676.5c-21,6.8-71.5,5.1-83.5,0c-11.1-4.7-11.9-46.1,0-48.3c16.7-3.2,64-2.8,83.5,0
				C2338.2,1629.9,2337.7,1672.8,2326.3,1676.5z"/>
			<path class="st16" d="M2201.7,1658.1c-21,6.8-71.5,5.1-83.5,0c-11.1-4.7-11.9-46.1,0-48.3c16.7-3.2,64-2.8,83.5,0
				C2213.7,1611.4,2213.2,1654.3,2201.7,1658.1z"/>
			<path class="st17" d="M2233,676.7c0,0,68.3-3.5,96.2,29.6c27.9,33.1,25.6,380.5,14.3,390.2c-11.3,9.7-108.4,39-185.4,16.2
				c-77.1-22.8-82-54.1-82-54.1s20.5-233.7,20.5-297.5S2159,659.5,2233,676.7z"/>
			<path class="st13" d="M2293.2,1028.6c6-16.8-0.4-70.1-7.3-108.8c-5.4,1-10.5,2.3-15.4,3.7c-8.3-25.5-15.5-91.8-15.8-133.5
				c-0.5-78.2,39.1-100.9,39.1-100.9c7.8-1.8,20.4,5.6,40,26c22.7,62,17.9,350.3,7.3,359.4c-4.5,3.9-13.4,28.3-36.2,33.1
				C2299,1084.4,2287.7,1044.1,2293.2,1028.6z"/>
			<path class="st13" d="M2238.9,677.4c14.8,13.6,16,13.9,0.6,31.7c-15.4,17.9-66.3,38.2-73.6,34.7c-18-8.5-1.3-36.9,10.8-57.4
				C2180.4,680.1,2224.1,663.8,2238.9,677.4z"/>
			<path class="st12" d="M2172.7,625.9c0,0-4,94,0,98.2c4,4.1,61.1-15.8,66.1-27.5c5-11.7-20.8-181.7-20.8-181.7L2172.7,625.9z"/>
			<path class="st18" d="M2171,687.9c10.1-1.8,18.8-4.4,21.4-7.3c23.3-26.3,5.8-69.1,7.7-80.2c3.6-22.1,11.1-40.4,7.4-59.5
				l-34.7,84.9C2172.7,625.9,2171.3,659.9,2171,687.9z"/>
			<g>
				<path class="st19" d="M1866.3,732.8c-3.9,9.8,4.2,19.3,12.7,15.1c2-1,3.5-2.8,4.3-4.8c3.9-9.8-4.2-19.3-12.7-15.1
					C1868.6,728.9,1867.1,730.7,1866.3,732.8z"/>
				<path class="st19" d="M1871.5,737.5l2.9,4.1l1.8-4.9c2.3-6.3,21.7-62.2,0.3-75c-6.3-3.8-12.3-2.6-16.4,3.3
					C1850.7,678.5,1853.6,712.3,1871.5,737.5z M1864.3,669c2-2.8,4.4-3.7,7.4-2.7c0.7,0.2,1.4,0.6,2.2,1c13,7.7,4.8,43.4-1.1,61.7
					C1858.5,705.8,1857.9,678.2,1864.3,669z"/>
				<g>
					<path class="st19" d="M1874.2,734.4l4.5,1c4.1,0.9,8.1,1.3,12.1,1.3c19.9,0,37.3-10.3,41.5-22.2c2.2-6.3,0.5-12.3-4.9-16.5
						c-17.8-13.9-47,27.5-50.3,32.2L1874.2,734.4z M1884.4,729.9c8.3-11.1,23.8-28.4,34.6-28.4c1.9,0,3.7,0.5,5.2,1.8
						c3.2,2.5,4.1,5.3,2.9,8.8C1923.8,721.5,1905.6,732.4,1884.4,729.9z"/>
				</g>
				<path class="st17" d="M1731.8,981.6h268.6c14.7,0,26.6-11.9,26.6-26.6V765.3c0-14.7-11.9-26.6-26.6-26.6h-268.6
					c-14.7,0-26.6,11.9-26.6,26.6V955C1705.2,969.7,1717.1,981.6,1731.8,981.6z"/>
				<path class="st20" d="M1726.3,738.7h100.6v242.9h-100.6c-11.6,0-21.1-15.1-21.1-33.7V772.4
					C1705.2,753.8,1714.6,738.7,1726.3,738.7z"/>
				<path class="st19" d="M1917.4,738.7h7.9c42.9,77.5,16.6,213.3,10.2,242.9h-6.2c4.4-19.9,35.1-167.6-11.5-242.2
					C1917.6,739.2,1917.5,739,1917.4,738.7z"/>
				<path class="st19" d="M1768.9,980.7c0,0.3,0.1,0.6,0.1,0.9h-5.9c-17.3-138.4,1.8-211.6,14.7-242.9h7.3
					C1773.3,764.9,1750.8,837,1768.9,980.7z"/>
			</g>
			<g>
				<path class="st21" d="M2246.6,1244.2h200.5c3.8,0,6.9-3.1,6.9-6.9v-130.2c0-3.8-3.1-6.9-6.9-6.9h-200.5c-3.8,0-6.9,3.1-6.9,6.9
					v130.2C2239.8,1241.2,2242.8,1244.2,2246.6,1244.2z"/>
				
					<rect x="2247.9" y="1116.9" transform="matrix(-1 -1.224647e-16 1.224647e-16 -1 4677.3809 2344.554)" class="st0" width="181.5" height="110.8"/>
				<path class="st20" d="M2239.1,1203.9h11.4c2.1,0,3.9-1.7,3.9-3.9v-55.6c0-2.1-1.7-3.9-3.9-3.9h-11.4c-2.1,0-3.9,1.7-3.9,3.9
					v55.6C2235.2,1202.2,2236.9,1203.9,2239.1,1203.9z"/>
			</g>
			<path class="st12" d="M2309.7,1028.6c-13.5,41.1,34.1,130,14.7,158.5s-9.6,58.3,13.8,73.1c23.4,14.8,52.5-5.9,50.2-17.2
				c-2.3-11.3-8.7-41.6-11.6-55.5c-2.9-13.9,51.6-125.1,13.2-192.5c-22.7-40,10.9-108.9-6.9-153.4c-15.9,29.6-91.2,11.1-86.9,43.6
				C2303.3,913,2317.3,1005.5,2309.7,1028.6z"/>
			<path class="st9" d="M2139.2,528.4c0,0-9.8,33.8-9.8,61.4c0,27.7,0.7,75.6,20.3,75.6s47.7-5.4,54.2-44.6
				c6.5-39.2,0-82.4-19.6-92.5C2164.7,518.3,2139.2,528.4,2139.2,528.4z"/>
			<path class="st22" d="M2146.8,553.4c5.3-2.2,10.7,2.5,9.7,8.3c-1.6,9.3-1.2,19.4,7.4,21.5c16.7,4.1,24.5,0,27.3,2.8
				c2.7,2.8-7.9,17.8,0,20.7c7.9,2.8,12.1-24.1,19.1-24.1s8.5,38.8,0,47.6c-8.5,8.8,1.2,20.7,12.4,20.7c11.2,0-1.4,14.1,13.7,18.8
				c15.1,4.7,27.2,4.7,32.1-14.4c4.8-19.1,0-29.7,0-29.7s15.4-18,11.5-35.9c-2.2-9.9-12.2-27.7-12.2-27.7s-7.8-21.2-9.9-33.4
				c-2.1-12.2-32.2-24.4-52.7-26.6c-20.6-2.2-10.3-14.7-27.5-14.7s-19.6,22.8-19.6,22.8s-24.7-14.7-25.8-14
				c-14.3,8.7-2.4,24.1-2.4,24.1s-11.8,1.3-14.2,16.6c-2.4,15.3,7.6,24.7,23.3,19.7C2141.8,555.3,2144.5,554.3,2146.8,553.4z"/>
			<path class="st23" d="M2129.8,497.6c3,0.4,7,1.4,11.8,2.8c7.4,4.1,16.4,9.5,16.4,9.5s32.2,9,50.6,17.8
				c23.6,11.3,44.3,22.6,58.3,31.5c0.6,1.6,0.9,2.6,0.9,2.6s3.7,6.6,7.1,13.9c-14.6-3.2-43.2-14.2-75.1-29.4
				C2163.7,529.1,2127.7,499.3,2129.8,497.6z"/>
			<path class="st9" d="M2199.4,580.4c0,0,8.3-15.3,15.7-6.8c7.4,8.6,3.5,44.7-7.9,44.7S2195.3,590.1,2199.4,580.4z"/>
			<path class="st17" d="M2291.8,689.9c0,0-23.2,17.7-22.8,95.8c0.2,41.7,12.5,112.3,20,137.8c31.3-9.9,75.4-10.5,107.3,0
				c4.3-34.1-4.4-106.9-9.8-130.4C2373.2,735.3,2325,676.7,2291.8,689.9z"/>
			<path class="st24" d="M2151.2,501.7c15.4-32.4,54.5-46,87.2-30.5c32.7,15.6,46.7,54.5,31.3,86.9c-0.6,1.2-1.2,2.5-1.9,3.6
				l-118.2-56.3C2150.1,504.2,2150.6,502.9,2151.2,501.7z"/>
			<path class="st17" d="M2175.8,516.5c0.5-1.3,1-2.5,1.6-3.8c12.9-27.1,42.3-41,70.7-35.8c-3-2.1-6.2-4-9.7-5.6
				c-32.7-15.6-71.8-2-87.2,30.5c-0.6,1.2-1.1,2.5-1.6,3.8l118.2,56.3C2268,561.4,2175.8,516.5,2175.8,516.5z"/>
			<path class="st25" d="M2096.8,481.9c1.3-2.6,62.8,22.5,102.2,41.2c39.3,18.8,70.2,36.1,69,38.7c-1.3,2.6-66.5-12.7-105.9-31.4
				C2122.7,511.6,2095.5,484.5,2096.8,481.9z"/>
		</g>
		<g>
			<path class="st26" d="M933.2,1644.6c0,0-13.9,13.8-14.2,18.8c-0.3,5-1.2,59.1,4.4,64.2c5.7,5.1,22.4,8.6,17,14.3
				c-4.1,4.3-35.2,3.4-55.9,2.2c-6-0.3-13.6-49.1-16-56.3c-3.5-10.4-14.4-36.6-11.3-43.9c1.5-3.5,11.4-8.1,21.8-14.8
				c10.9-7.1,21.3-23,21.3-23L933.2,1644.6z"/>
			<path class="st26" d="M1119.2,1678.4c0,0-12.4,35.6-12.5,35.7c-0.9,5.6-4.6,19.6-4.6,24.7c0,19.3,85.8-16.4,66.6-24.9
				c-1.7-0.8-7.2-7-7.8-13.5c-0.9-10.1,7.2-22.8,7.2-22.8L1119.2,1678.4z"/>
			<g>
				<path class="st27" d="M1112.1,1042.9l-44.4,51.8l-43.6,271.1L887,1618.7c0,0,20.6,31.6,42.7,36.6l194.5-255.6l105.4-320
					l-3.7-71.1L1112.1,1042.9z"/>
				<path class="st28" d="M1223.3,992.9l30.7,94.7c0,0,27,282,23.2,301.5c-9.4,47.4-104.1,305.5-104.1,305.5l-60.7-7.7l66.6-305.2
					l-111-286.7L1223.3,992.9z"/>
			</g>
			<path class="st29" d="M1518,670.6c-14.4,15.8-11.2,17.7-13.1,19.7c-2.2,2.3-43.9,11.2-43.9,11.2s-122.6,27-129.3,28.2
				l-127.2-28.9l-31,61.6c0,0,139.1,27.6,146.6,27.8c7.5,0.1,168.9-56.6,183.3-61.1c0,0,19.1,1.2,31.1,1.6c12,0.4,23.5-4.9,26.9-5.3
				c0.5-0.1,11.7-2.2,24.8-8.7c11.3-5.6-1.9-5.7-1.9-5.7s-22.7,6.4-22.9,4.5c-0.2-1.5,12.5-4.3,25-10.3c3.2-1.6,6.4-3.1,9.3-4.6
				c7.6-3.8,7.5-9.8-1.1-7.2c-3,0.9-8.1,2.6-11.5,4.3c-3.7,1.9-7.6,2.3-11,3.4c-6.6,2.1-11.4,3.8-11.3,3.4c0.1-0.4-1.5-1,1.8-2.7
				c4.1-2.1,13.7-4.6,19.4-8.2c3.2-2,10.3-5.9,10.3-5.9s11.7-7.7,10.6-9.3c-2.5-3.5-10.7,0-14.8,3.4c-3.7,0.8-11,5-11,5
				s-16.6,5.1-17.4,2.7c-0.3-1,8.3-6,16.9-11.9c9.1-6.3,15.3-11.3,14.4-13.3c-1.4-3.2-9,1.3-9,1.3s-6.7,3.9-9.1,5.1
				c-2.7,1.3-11.2,4.6-11.2,4.6s-30.1,10.1-30.6,7.7c-0.5-2.4,0.5-9,2.1-10.3c1.6-1.3,5.9-2,7.5-3.3c1.7-1.3,4.9-4.4,3.5-6.7
				c-1.4-2.3-13.9,0.8-13.9,0.8S1522.1,666,1518,670.6z"/>
			<path class="st30" d="M1248.1,707.4c0,0-4.4,27-7.2,37c-2.3,8.3-18.8,42.5-18.8,42.5s-59-19.3-86.8-30.4
				c-33.8-13.4-72.9-42.3-70.4-46c7.1-10.3,18.6-22.2,34.8-26.3C1155.9,670.1,1248.1,707.4,1248.1,707.4z"/>
			<path class="st21" d="M1254.9,1085.6c-56.3,22.2-188.5,9.4-188.5,9.4s8.4-57.7,11.3-96.7c3-39-21.9-100.7-32.3-207.8
				c-2.2-22.7,6.7-84,38.5-103.3c11.2-6.8,18-7.6,18-7.6c0.3,0,43.8-8.9,66-2c6.3,5.6,26,21.9,37.3,40.8
				c14.9,25.1,27.1,54.1,29.9,63.7c12.8,42.5,18.3,165.4,18.3,188.6C1253.5,993.8,1254.9,1085.6,1254.9,1085.6z"/>
			<path class="st26" d="M1205.2,718.3c0,0-0.1,0-0.1,0.1c-21.6,6.7-103.2-38.6-103.2-38.6l0-0.2l9.9-64.7c0,0,50.9-12,47.9,6.4
				c-3,18.4,6.9,55.1,6.9,55.1c0.3,0.3,0.7,0.7,1.3,1.2C1174.3,683.1,1193.9,699.4,1205.2,718.3z"/>
			<path class="st31" d="M1159.8,621.3c3-18.4-47.9-6.4-47.9-6.4l-0.8,5.4c1.5,3.6,3.3,6.7,5.5,9c11.4,12.2,29.1,19.5,44.5,20
				C1159.5,639.4,1158.6,628.8,1159.8,621.3z"/>
			<g>
				<path class="st26" d="M1102,515.5c-1.6-0.6-12.5,80.1,8.3,102.2c20.8,22.2,61.2,29.4,75.7,12c16-19.3,15.2-106-17-128.8
					C1136.7,478.1,1102,515.5,1102,515.5z"/>
				<path class="st32" d="M1156.6,457.8c-24.9,5-41.1,20.2-47,26.6c-11.3,1.3-26.7,7.5-42.6,33.7c-19.5,32.1-5.1,67.7,17.6,85.2
					c22.7,17.5,22.5,37.8,22.5,37.8s38.5-19.8,34.8-50.3c-1.6-12.8-7.1-15.7-3-25.7c4.3-10.4,1.1-26.6,1.9-40.6l2.3-8.8
					c0,0,16.1-12.5,31.9-9C1190.9,510.2,1188.6,451.3,1156.6,457.8z"/>
				<path class="st26" d="M1145.3,573.5c0.2,9.8-1.8,17.7-7.6,17.8c-5.7,0.1-7.3-3.8-12.1-17.6c-4.4-13,1-17.9,6.7-18
					C1138.1,555.6,1145.1,563.7,1145.3,573.5z"/>
			</g>
			<path class="st30" d="M879.7,1628.7c0,0,29,89.2,41.6,93.7c3.3,1.2,22.3,6.4,25.3,13.5c0.1,0.2,0.1,0.4,0.2,0.6
				c1,4.5-2.8,8.7-7.5,8.7h-59.5c0,0-8.4-40.3-11.8-58c0,0-17.7-43.3-15.7-47.2C854.2,1636.2,879.7,1628.7,879.7,1628.7z"/>
			<path class="st30" d="M1097.3,1745.2l9.8-31.5c0,0,20.6,8.8,31,7.4c10.3-1.5,30.5-7.4,30.5-7.4c41.2,13.7,74.9,20.4,68.8,31.5
				l0,0H1097.3z"/>
			<path class="st29" d="M1521.5,806.8c-18.9,11.5-17.8,12.9-20.3,14.3c-2.9,1.7-48-0.3-48-0.3s-132.8-5-139.9-5.5l-122.4-59.4
				l-48.2,51c0,0,135,61.2,142.6,63.1c7.6,2,188.1-11.6,204.1-12.3c0,0,19.2,6,31.4,9.3c12.2,3.4,25.4,1.3,29,1.7
				c0.5,0.1,12.6,0.8,27.7-2.1c13.1-2.5-0.4-5.9-0.4-5.9s-25,0.4-24.7-1.5c0.3-1.5,13.9-0.9,28.4-3.6c3.7-0.7,7.4-1.4,10.8-2
				c8.8-1.7,10.3-7.5,0.8-7.1c-3.4,0.1-8.9,0.5-12.9,1.3c-4.3,0.9-8.5,0.3-12.2,0.5c-7.3,0.4-12.3,0.7-12.1,0.4
				c0.2-0.4-1.7-1.3,2.2-2.1c4.7-1,15.2-1,22-3c3.9-1.1,12.1-3,12.1-3s9.8-5.8,9.7-6.6c-0.4-4.2-7.3-2.2-12.4,0
				c-3.9-0.2-12.6,2-12.6,2s-18.4,0.7-18.5-1.8c0-1,10.6-1.7,21.5-5.2c12.5-4,15.7-9.6,15.3-11.8c-0.5-3.4-7.6-0.2-7.6-0.2
				s-9.7,4.4-12.4,4.9c-3.2,0.6-44.5,1.3-44.4-1.1c0.1-2.4,4.1-5.6,6.1-6.4c2-0.8,5.9-2,8-2.8c2-0.8,3.4-5,2.6-7.5
				c-0.8-2.5-9.8-1.2-9.8-1.2S1527,803.5,1521.5,806.8z"/>
			<path class="st33" d="M1178.9,861.5c0,0,24.1-30.4,32.5-42.7c16.3-23.9,29.9-50.8,29.9-50.8s-67.1-38.7-92.1-51.8
				c-91.8-48.4-89.7,23.8-85.4,39.8C1073.4,791.8,1178.9,861.5,1178.9,861.5z"/>
			<path class="st31" d="M1519.5,704.1c7.9-4.5,14.1-11.6,12.1-20.6C1538.4,690.6,1529.8,703.7,1519.5,704.1z"/>
		</g>
	</g>
</g>
</svg>
